{
 "asset": {
  "version": "2.0",
  "generator": "vector3d gen_test_assets"
 },
 "scene": 0,
 "scenes": [
  {
   "nodes": [
    0
   ]
  }
 ],
 "nodes": [
  {
   "mesh": 0
  }
 ],
 "meshes": [
  {
   "name": "cylinder",
   "primitives": [
    {
     "attributes": {
      "POSITION": 0
     },
     "indices": 1,
     "material": 0,
     "mode": 4
    }
   ]
  }
 ],
 "materials": [
  {
   "name": "barrel",
   "pbrMetallicRoughness": {
    "baseColorFactor": [
     0.55,
     1.0,
     0.1,
     1.0
    ]
   }
  }
 ],
 "buffers": [
  {
   "uri": "data:application/octet-stream;base64,",
   "byteLength": 1752
  }
 ],
 "bufferViews": [
  {
   "buffer": 0,
   "byteOffset": 0,
   "byteLength": 600
  },
  {
   "buffer": 0,
   "byteOffset": 600,
   "byteLength": 1152
  }
 ],
 "accessors": [
  {
   "bufferView": 0,
   "componentType": 5126,
   "count": 50,
   "type": "VEC3",
   "min": [
    -1.0,
    -1.0,
    -1.0
   ],
   "max": [
    1.0,
    1.0,
    1.0
   ]
  },
  {
   "bufferView": 1,
   "componentType": 5125,
   "count": 288,
   "type": "SCALAR"
  }
 ]
}