{
 "asset": {
  "version": "2.0",
  "generator": "vector3d gen_test_assets"
 },
 "scene": 0,
 "scenes": [
  {
   "nodes": [
    0
   ]
  }
 ],
 "nodes": [
  {
   "mesh": 0
  }
 ],
 "meshes": [
  {
   "name": "corridor",
   "primitives": [
    {
     "attributes": {
      "POSITION": 0
     },
     "indices": 1,
     "material": 0,
     "mode": 4
    },
    {
     "attributes": {
      "POSITION": 2
     },
     "indices": 3,
     "material": 2,
     "mode": 3
    },
    {
     "attributes": {
      "POSITION": 4
     },
     "indices": 5,
     "material": 2,
     "mode": 3
    },
    {
     "attributes": {
      "POSITION": 6
     },
     "indices": 7,
     "material": 2,
     "mode": 3
    },
    {
     "attributes": {
      "POSITION": 8
     },
     "indices": 9,
     "material": 4,
     "mode": 1
    },
    {
     "attributes": {
      "POSITION": 10
     },
     "indices": 11,
     "material": 5,
     "mode": 2
    },
    {
     "attributes": {
      "POSITION": 12
     },
     "indices": 13,
     "material": 1,
     "mode": 2
    },
    {
     "attributes": {
      "POSITION": 14
     },
     "indices": 15,
     "material": 1,
     "mode": 2
    },
    {
     "attributes": {
      "POSITION": 16
     },
     "indices": 17,
     "material": 1,
     "mode": 2
    },
    {
     "attributes": {
      "POSITION": 18
     },
     "indices": 19,
     "material": 1,
     "mode": 2
    },
    {
     "attributes": {
      "POSITION": 20
     },
     "indices": 21,
     "material": 1,
     "mode": 2
    },
    {
     "attributes": {
      "POSITION": 22
     },
     "indices": 23,
     "material": 1,
     "mode": 2
    },
    {
     "attributes": {
      "POSITION": 24
     },
     "indices": 25,
     "material": 1,
     "mode": 2
    },
    {
     "attributes": {
      "POSITION": 26
     },
     "indices": 27,
     "material": 1,
     "mode": 2
    },
    {
     "attributes": {
      "POSITION": 28
     },
     "indices": 29,
     "material": 1,
     "mode": 2
    },
    {
     "attributes": {
      "POSITION": 30
     },
     "indices": 31,
     "material": 1,
     "mode": 2
    },
    {
     "attributes": {
      "POSITION": 32
     },
     "indices": 33,
     "material": 1,
     "mode": 2
    },
    {
     "attributes": {
      "POSITION": 34
     },
     "indices": 35,
     "material": 1,
     "mode": 2
    },
    {
     "attributes": {
      "POSITION": 36
     },
     "indices": 37,
     "material": 1,
     "mode": 2
    },
    {
     "attributes": {
      "POSITION": 38
     },
     "indices": 39,
     "material": 1,
     "mode": 2
    },
    {
     "attributes": {
      "POSITION": 40
     },
     "indices": 41,
     "material": 1,
     "mode": 2
    },
    {
     "attributes": {
      "POSITION": 42
     },
     "indices": 43,
     "material": 1,
     "mode": 2
    },
    {
     "attributes": {
      "POSITION": 44
     },
     "indices": 45,
     "material": 1,
     "mode": 2
    },
    {
     "attributes": {
      "POSITION": 46
     },
     "indices": 47,
     "material": 1,
     "mode": 2
    },
    {
     "attributes": {
      "POSITION": 48
     },
     "indices": 49,
     "material": 1,
     "mode": 2
    },
    {
     "attributes": {
      "POSITION": 50
     },
     "indices": 51,
     "material": 1,
     "mode": 2
    },
    {
     "attributes": {
      "POSITION": 52
     },
     "indices": 53,
     "material": 3,
     "mode": 2
    },
    {
     "attributes": {
      "POSITION": 54
     },
     "indices": 55,
     "material": 3,
     "mode": 2
    },
    {
     "attributes": {
      "POSITION": 56
     },
     "indices": 57,
     "material": 3,
     "mode": 3
    },
    {
     "attributes": {
      "POSITION": 58
     },
     "indices": 59,
     "material": 1,
     "mode": 2
    },
    {
     "attributes": {
      "POSITION": 60
     },
     "indices": 61,
     "material": 3,
     "mode": 2
    },
    {
     "attributes": {
      "POSITION": 62
     },
     "indices": 63,
     "material": 3,
     "mode": 2
    },
    {
     "attributes": {
      "POSITION": 64
     },
     "indices": 65,
     "material": 3,
     "mode": 3
    },
    {
     "attributes": {
      "POSITION": 66
     },
     "indices": 67,
     "material": 1,
     "mode": 2
    }
   ]
  }
 ],
 "materials": [
  {
   "name": "structure",
   "pbrMetallicRoughness": {
    "baseColorFactor": [
     0.3,
     0.85,
     0.12,
     1.0
    ]
   }
  },
  {
   "name": "panel",
   "pbrMetallicRoughness": {},
   "emissiveFactor": [
    0.55,
    1.0,
    0.1
   ]
  },
  {
   "name": "door",
   "pbrMetallicRoughness": {},
   "emissiveFactor": [
    0.05,
    0.75,
    1.0
   ],
   "extensions": {
    "KHR_materials_emissive_strength": {
     "emissiveStrength": 3.0
    }
   }
  },
  {
   "name": "floor-art",
   "pbrMetallicRoughness": {},
   "emissiveFactor": [
    0.05,
    1.0,
    0.15
   ],
   "extensions": {
    "KHR_materials_emissive_strength": {
     "emissiveStrength": 1.8
    }
   }
  },
  {
   "name": "door-accent-dash",
   "pbrMetallicRoughness": {},
   "emissiveFactor": [
    0.05,
    0.75,
    1.0
   ],
   "extensions": {
    "KHR_materials_emissive_strength": {
     "emissiveStrength": 2.2
    }
   }
  },
  {
   "name": "roomb-light-flicker",
   "pbrMetallicRoughness": {},
   "emissiveFactor": [
    0.55,
    1.0,
    0.1
   ],
   "extensions": {
    "KHR_materials_emissive_strength": {
     "emissiveStrength": 2.5
    }
   }
  }
 ],
 "buffers": [
  {
   "uri": "data:application/octet-stream;base64,",
   "byteLength": 4040
  }
 ],
 "bufferViews": [
  {
   "buffer": 0,
   "byteOffset": 0,
   "byteLength": 432
  },
  {
   "buffer": 0,
   "byteOffset": 432,
   "byteLength": 216
  },
  {
   "buffer": 0,
   "byteOffset": 648,
   "byteLength": 48
  },
  {
   "buffer": 0,
   "byteOffset": 696,
   "byteLength": 16
  },
  {
   "buffer": 0,
   "byteOffset": 712,
   "byteLength": 48
  },
  {
   "buffer": 0,
   "byteOffset": 760,
   "byteLength": 16
  },
  {
   "buffer": 0,
   "byteOffset": 776,
   "byteLength": 360
  },
  {
   "buffer": 0,
   "byteOffset": 1136,
   "byteLength": 120
  },
  {
   "buffer": 0,
   "byteOffset": 1256,
   "byteLength": 96
  },
  {
   "buffer": 0,
   "byteOffset": 1352,
   "byteLength": 32
  },
  {
   "buffer": 0,
   "byteOffset": 1384,
   "byteLength": 48
  },
  {
   "buffer": 0,
   "byteOffset": 1432,
   "byteLength": 16
  },
  {
   "buffer": 0,
   "byteOffset": 1448,
   "byteLength": 48
  },
  {
   "buffer": 0,
   "byteOffset": 1496,
   "byteLength": 16
  },
  {
   "buffer": 0,
   "byteOffset": 1512,
   "byteLength": 48
  },
  {
   "buffer": 0,
   "byteOffset": 1560,
   "byteLength": 16
  },
  {
   "buffer": 0,
   "byteOffset": 1576,
   "byteLength": 48
  },
  {
   "buffer": 0,
   "byteOffset": 1624,
   "byteLength": 16
  },
  {
   "buffer": 0,
   "byteOffset": 1640,
   "byteLength": 48
  },
  {
   "buffer": 0,
   "byteOffset": 1688,
   "byteLength": 16
  },
  {
   "buffer": 0,
   "byteOffset": 1704,
   "byteLength": 48
  },
  {
   "buffer": 0,
   "byteOffset": 1752,
   "byteLength": 16
  },
  {
   "buffer": 0,
   "byteOffset": 1768,
   "byteLength": 48
  },
  {
   "buffer": 0,
   "byteOffset": 1816,
   "byteLength": 16
  },
  {
   "buffer": 0,
   "byteOffset": 1832,
   "byteLength": 48
  },
  {
   "buffer": 0,
   "byteOffset": 1880,
   "byteLength": 16
  },
  {
   "buffer": 0,
   "byteOffset": 1896,
   "byteLength": 48
  },
  {
   "buffer": 0,
   "byteOffset": 1944,
   "byteLength": 16
  },
  {
   "buffer": 0,
   "byteOffset": 1960,
   "byteLength": 48
  },
  {
   "buffer": 0,
   "byteOffset": 2008,
   "byteLength": 16
  },
  {
   "buffer": 0,
   "byteOffset": 2024,
   "byteLength": 48
  },
  {
   "buffer": 0,
   "byteOffset": 2072,
   "byteLength": 16
  },
  {
   "buffer": 0,
   "byteOffset": 2088,
   "byteLength": 48
  },
  {
   "buffer": 0,
   "byteOffset": 2136,
   "byteLength": 16
  },
  {
   "buffer": 0,
   "byteOffset": 2152,
   "byteLength": 48
  },
  {
   "buffer": 0,
   "byteOffset": 2200,
   "byteLength": 16
  },
  {
   "buffer": 0,
   "byteOffset": 2216,
   "byteLength": 48
  },
  {
   "buffer": 0,
   "byteOffset": 2264,
   "byteLength": 16
  },
  {
   "buffer": 0,
   "byteOffset": 2280,
   "byteLength": 48
  },
  {
   "buffer": 0,
   "byteOffset": 2328,
   "byteLength": 16
  },
  {
   "buffer": 0,
   "byteOffset": 2344,
   "byteLength": 48
  },
  {
   "buffer": 0,
   "byteOffset": 2392,
   "byteLength": 16
  },
  {
   "buffer": 0,
   "byteOffset": 2408,
   "byteLength": 48
  },
  {
   "buffer": 0,
   "byteOffset": 2456,
   "byteLength": 16
  },
  {
   "buffer": 0,
   "byteOffset": 2472,
   "byteLength": 48
  },
  {
   "buffer": 0,
   "byteOffset": 2520,
   "byteLength": 16
  },
  {
   "buffer": 0,
   "byteOffset": 2536,
   "byteLength": 48
  },
  {
   "buffer": 0,
   "byteOffset": 2584,
   "byteLength": 16
  },
  {
   "buffer": 0,
   "byteOffset": 2600,
   "byteLength": 48
  },
  {
   "buffer": 0,
   "byteOffset": 2648,
   "byteLength": 16
  },
  {
   "buffer": 0,
   "byteOffset": 2664,
   "byteLength": 48
  },
  {
   "buffer": 0,
   "byteOffset": 2712,
   "byteLength": 16
  },
  {
   "buffer": 0,
   "byteOffset": 2728,
   "byteLength": 48
  },
  {
   "buffer": 0,
   "byteOffset": 2776,
   "byteLength": 16
  },
  {
   "buffer": 0,
   "byteOffset": 2792,
   "byteLength": 48
  },
  {
   "buffer": 0,
   "byteOffset": 2840,
   "byteLength": 16
  },
  {
   "buffer": 0,
   "byteOffset": 2856,
   "byteLength": 348
  },
  {
   "buffer": 0,
   "byteOffset": 3204,
   "byteLength": 116
  },
  {
   "buffer": 0,
   "byteOffset": 3320,
   "byteLength": 48
  },
  {
   "buffer": 0,
   "byteOffset": 3368,
   "byteLength": 16
  },
  {
   "buffer": 0,
   "byteOffset": 3384,
   "byteLength": 48
  },
  {
   "buffer": 0,
   "byteOffset": 3432,
   "byteLength": 16
  },
  {
   "buffer": 0,
   "byteOffset": 3448,
   "byteLength": 48
  },
  {
   "buffer": 0,
   "byteOffset": 3496,
   "byteLength": 16
  },
  {
   "buffer": 0,
   "byteOffset": 3512,
   "byteLength": 348
  },
  {
   "buffer": 0,
   "byteOffset": 3860,
   "byteLength": 116
  },
  {
   "buffer": 0,
   "byteOffset": 3976,
   "byteLength": 48
  },
  {
   "buffer": 0,
   "byteOffset": 4024,
   "byteLength": 16
  }
 ],
 "accessors": [
  {
   "bufferView": 0,
   "componentType": 5126,
   "count": 36,
   "type": "VEC3",
   "min": [
    -3.5,
    0,
    -9.0
   ],
   "max": [
    3.5,
    3.0,
    9.0
   ]
  },
  {
   "bufferView": 1,
   "componentType": 5125,
   "count": 54,
   "type": "SCALAR"
  },
  {
   "bufferView": 2,
   "componentType": 5126,
   "count": 4,
   "type": "VEC3",
   "min": [
    -1.3,
    0,
    0
   ],
   "max": [
    1.3,
    2.3,
    0
   ]
  },
  {
   "bufferView": 3,
   "componentType": 5125,
   "count": 4,
   "type": "SCALAR"
  },
  {
   "bufferView": 4,
   "componentType": 5126,
   "count": 4,
   "type": "VEC3",
   "min": [
    -1.44,
    0,
    0
   ],
   "max": [
    1.44,
    2.44,
    0
   ]
  },
  {
   "bufferView": 5,
   "componentType": 5125,
   "count": 4,
   "type": "SCALAR"
  },
  {
   "bufferView": 6,
   "componentType": 5126,
   "count": 30,
   "type": "VEC3",
   "min": [
    -1.44,
    2.44,
    0.0
   ],
   "max": [
    1.44,
    2.7,
    0.0
   ]
  },
  {
   "bufferView": 7,
   "componentType": 5125,
   "count": 30,
   "type": "SCALAR"
  },
  {
   "bufferView": 8,
   "componentType": 5126,
   "count": 8,
   "type": "VEC3",
   "min": [
    -2.0,
    0.15,
    0.0
   ],
   "max": [
    2.0,
    2.6999999999999997,
    0.0
   ]
  },
  {
   "bufferView": 9,
   "componentType": 5125,
   "count": 8,
   "type": "SCALAR"
  },
  {
   "bufferView": 10,
   "componentType": 5126,
   "count": 4,
   "type": "VEC3",
   "min": [
    -1.4,
    2.999,
    -6.2
   ],
   "max": [
    1.4,
    2.999,
    -3.2
   ]
  },
  {
   "bufferView": 11,
   "componentType": 5125,
   "count": 4,
   "type": "SCALAR"
  },
  {
   "bufferView": 12,
   "componentType": 5126,
   "count": 4,
   "type": "VEC3",
   "min": [
    -3.5,
    0.45,
    -8.15
   ],
   "max": [
    -3.5,
    2.55,
    -5.050000000000001
   ]
  },
  {
   "bufferView": 13,
   "componentType": 5125,
   "count": 4,
   "type": "SCALAR"
  },
  {
   "bufferView": 14,
   "componentType": 5126,
   "count": 4,
   "type": "VEC3",
   "min": [
    -3.5,
    0.8,
    -7.800000000000001
   ],
   "max": [
    -3.5,
    2.2,
    -5.4
   ]
  },
  {
   "bufferView": 15,
   "componentType": 5125,
   "count": 4,
   "type": "SCALAR"
  },
  {
   "bufferView": 16,
   "componentType": 5126,
   "count": 4,
   "type": "VEC3",
   "min": [
    -3.5,
    0.45,
    -4.15
   ],
   "max": [
    -3.5,
    2.55,
    -1.0500000000000003
   ]
  },
  {
   "bufferView": 17,
   "componentType": 5125,
   "count": 4,
   "type": "SCALAR"
  },
  {
   "bufferView": 18,
   "componentType": 5126,
   "count": 4,
   "type": "VEC3",
   "min": [
    -3.5,
    0.8,
    -3.8000000000000003
   ],
   "max": [
    -3.5,
    2.2,
    -1.4000000000000004
   ]
  },
  {
   "bufferView": 19,
   "componentType": 5125,
   "count": 4,
   "type": "SCALAR"
  },
  {
   "bufferView": 20,
   "componentType": 5126,
   "count": 4,
   "type": "VEC3",
   "min": [
    -3.5,
    0.45,
    0.85
   ],
   "max": [
    -3.5,
    2.55,
    3.95
   ]
  },
  {
   "bufferView": 21,
   "componentType": 5125,
   "count": 4,
   "type": "SCALAR"
  },
  {
   "bufferView": 22,
   "componentType": 5126,
   "count": 4,
   "type": "VEC3",
   "min": [
    -3.5,
    0.8,
    1.2
   ],
   "max": [
    -3.5,
    2.2,
    3.6
   ]
  },
  {
   "bufferView": 23,
   "componentType": 5125,
   "count": 4,
   "type": "SCALAR"
  },
  {
   "bufferView": 24,
   "componentType": 5126,
   "count": 4,
   "type": "VEC3",
   "min": [
    -3.5,
    0.45,
    4.85
   ],
   "max": [
    -3.5,
    2.55,
    7.949999999999999
   ]
  },
  {
   "bufferView": 25,
   "componentType": 5125,
   "count": 4,
   "type": "SCALAR"
  },
  {
   "bufferView": 26,
   "componentType": 5126,
   "count": 4,
   "type": "VEC3",
   "min": [
    -3.5,
    0.8,
    5.199999999999999
   ],
   "max": [
    -3.5,
    2.2,
    7.6
   ]
  },
  {
   "bufferView": 27,
   "componentType": 5125,
   "count": 4,
   "type": "SCALAR"
  },
  {
   "bufferView": 28,
   "componentType": 5126,
   "count": 4,
   "type": "VEC3",
   "min": [
    3.5,
    0.45,
    -8.15
   ],
   "max": [
    3.5,
    2.55,
    -5.050000000000001
   ]
  },
  {
   "bufferView": 29,
   "componentType": 5125,
   "count": 4,
   "type": "SCALAR"
  },
  {
   "bufferView": 30,
   "componentType": 5126,
   "count": 4,
   "type": "VEC3",
   "min": [
    3.5,
    0.8,
    -7.800000000000001
   ],
   "max": [
    3.5,
    2.2,
    -5.4
   ]
  },
  {
   "bufferView": 31,
   "componentType": 5125,
   "count": 4,
   "type": "SCALAR"
  },
  {
   "bufferView": 32,
   "componentType": 5126,
   "count": 4,
   "type": "VEC3",
   "min": [
    3.5,
    0.45,
    -4.15
   ],
   "max": [
    3.5,
    2.55,
    -1.0500000000000003
   ]
  },
  {
   "bufferView": 33,
   "componentType": 5125,
   "count": 4,
   "type": "SCALAR"
  },
  {
   "bufferView": 34,
   "componentType": 5126,
   "count": 4,
   "type": "VEC3",
   "min": [
    3.5,
    0.8,
    -3.8000000000000003
   ],
   "max": [
    3.5,
    2.2,
    -1.4000000000000004
   ]
  },
  {
   "bufferView": 35,
   "componentType": 5125,
   "count": 4,
   "type": "SCALAR"
  },
  {
   "bufferView": 36,
   "componentType": 5126,
   "count": 4,
   "type": "VEC3",
   "min": [
    3.5,
    0.45,
    0.85
   ],
   "max": [
    3.5,
    2.55,
    3.95
   ]
  },
  {
   "bufferView": 37,
   "componentType": 5125,
   "count": 4,
   "type": "SCALAR"
  },
  {
   "bufferView": 38,
   "componentType": 5126,
   "count": 4,
   "type": "VEC3",
   "min": [
    3.5,
    0.8,
    1.2
   ],
   "max": [
    3.5,
    2.2,
    3.6
   ]
  },
  {
   "bufferView": 39,
   "componentType": 5125,
   "count": 4,
   "type": "SCALAR"
  },
  {
   "bufferView": 40,
   "componentType": 5126,
   "count": 4,
   "type": "VEC3",
   "min": [
    3.5,
    0.45,
    4.85
   ],
   "max": [
    3.5,
    2.55,
    7.949999999999999
   ]
  },
  {
   "bufferView": 41,
   "componentType": 5125,
   "count": 4,
   "type": "SCALAR"
  },
  {
   "bufferView": 42,
   "componentType": 5126,
   "count": 4,
   "type": "VEC3",
   "min": [
    3.5,
    0.8,
    5.199999999999999
   ],
   "max": [
    3.5,
    2.2,
    7.6
   ]
  },
  {
   "bufferView": 43,
   "componentType": 5125,
   "count": 4,
   "type": "SCALAR"
  },
  {
   "bufferView": 44,
   "componentType": 5126,
   "count": 4,
   "type": "VEC3",
   "min": [
    -3.0,
    0.45,
    9.0
   ],
   "max": [
    3.0,
    2.55,
    9.0
   ]
  },
  {
   "bufferView": 45,
   "componentType": 5125,
   "count": 4,
   "type": "SCALAR"
  },
  {
   "bufferView": 46,
   "componentType": 5126,
   "count": 4,
   "type": "VEC3",
   "min": [
    -2.6,
    0.8,
    9.0
   ],
   "max": [
    2.6,
    2.2,
    9.0
   ]
  },
  {
   "bufferView": 47,
   "componentType": 5125,
   "count": 4,
   "type": "SCALAR"
  },
  {
   "bufferView": 48,
   "componentType": 5126,
   "count": 4,
   "type": "VEC3",
   "min": [
    -3.0,
    0.45,
    -9.0
   ],
   "max": [
    3.0,
    2.55,
    -9.0
   ]
  },
  {
   "bufferView": 49,
   "componentType": 5125,
   "count": 4,
   "type": "SCALAR"
  },
  {
   "bufferView": 50,
   "componentType": 5126,
   "count": 4,
   "type": "VEC3",
   "min": [
    -2.6,
    0.8,
    -9.0
   ],
   "max": [
    2.6,
    2.2,
    -9.0
   ]
  },
  {
   "bufferView": 51,
   "componentType": 5125,
   "count": 4,
   "type": "SCALAR"
  },
  {
   "bufferView": 52,
   "componentType": 5126,
   "count": 4,
   "type": "VEC3",
   "min": [
    -3.15,
    0.0,
    0.35
   ],
   "max": [
    3.15,
    0.0,
    8.65
   ]
  },
  {
   "bufferView": 53,
   "componentType": 5125,
   "count": 4,
   "type": "SCALAR"
  },
  {
   "bufferView": 54,
   "componentType": 5126,
   "count": 4,
   "type": "VEC3",
   "min": [
    -2.85,
    0.0,
    0.6499999999999999
   ],
   "max": [
    2.85,
    0.0,
    8.35
   ]
  },
  {
   "bufferView": 55,
   "componentType": 5125,
   "count": 4,
   "type": "SCALAR"
  },
  {
   "bufferView": 56,
   "componentType": 5126,
   "count": 29,
   "type": "VEC3",
   "min": [
    -1.5,
    0.0,
    3.0
   ],
   "max": [
    1.5,
    0.0,
    6.0
   ]
  },
  {
   "bufferView": 57,
   "componentType": 5125,
   "count": 29,
   "type": "SCALAR"
  },
  {
   "bufferView": 58,
   "componentType": 5126,
   "count": 4,
   "type": "VEC3",
   "min": [
    -2.8,
    3.0,
    0.7
   ],
   "max": [
    2.8,
    3.0,
    8.3
   ]
  },
  {
   "bufferView": 59,
   "componentType": 5125,
   "count": 4,
   "type": "SCALAR"
  },
  {
   "bufferView": 60,
   "componentType": 5126,
   "count": 4,
   "type": "VEC3",
   "min": [
    -3.15,
    0.0,
    -8.65
   ],
   "max": [
    3.15,
    0.0,
    -0.35
   ]
  },
  {
   "bufferView": 61,
   "componentType": 5125,
   "count": 4,
   "type": "SCALAR"
  },
  {
   "bufferView": 62,
   "componentType": 5126,
   "count": 4,
   "type": "VEC3",
   "min": [
    -2.85,
    0.0,
    -8.35
   ],
   "max": [
    2.85,
    0.0,
    -0.6499999999999999
   ]
  },
  {
   "bufferView": 63,
   "componentType": 5125,
   "count": 4,
   "type": "SCALAR"
  },
  {
   "bufferView": 64,
   "componentType": 5126,
   "count": 29,
   "type": "VEC3",
   "min": [
    -1.5,
    0.0,
    -6.0
   ],
   "max": [
    1.5,
    0.0,
    -3.0
   ]
  },
  {
   "bufferView": 65,
   "componentType": 5125,
   "count": 29,
   "type": "SCALAR"
  },
  {
   "bufferView": 66,
   "componentType": 5126,
   "count": 4,
   "type": "VEC3",
   "min": [
    -2.8,
    3.0,
    -8.3
   ],
   "max": [
    2.8,
    3.0,
    -0.7
   ]
  },
  {
   "bufferView": 67,
   "componentType": 5125,
   "count": 4,
   "type": "SCALAR"
  }
 ],
 "extensionsUsed": [
  "KHR_materials_emissive_strength"
 ]
}