{
 "asset": {
  "version": "2.0",
  "generator": "vector3d gen_test_assets"
 },
 "scene": 0,
 "scenes": [
  {
   "nodes": [
    0
   ]
  }
 ],
 "nodes": [
  {
   "mesh": 0
  }
 ],
 "meshes": [
  {
   "name": "plant",
   "primitives": [
    {
     "attributes": {
      "POSITION": 0
     },
     "indices": 1,
     "material": 0,
     "mode": 4
    },
    {
     "attributes": {
      "POSITION": 2
     },
     "indices": 3,
     "material": 1,
     "mode": 3
    }
   ]
  }
 ],
 "materials": [
  {
   "name": "leaf",
   "pbrMetallicRoughness": {
    "baseColorFactor": [
     0.95,
     1.0,
     0.95,
     1.0
    ]
   }
  },
  {
   "name": "stem",
   "pbrMetallicRoughness": {},
   "emissiveFactor": [
    0.9,
    1.0,
    0.9
   ]
  }
 ],
 "buffers": [
  {
   "uri": "data:application/octet-stream;base64,",
   "byteLength": 568
  }
 ],
 "bufferViews": [
  {
   "buffer": 0,
   "byteOffset": 0,
   "byteLength": 336
  },
  {
   "buffer": 0,
   "byteOffset": 336,
   "byteLength": 168
  },
  {
   "buffer": 0,
   "byteOffset": 504,
   "byteLength": 48
  },
  {
   "buffer": 0,
   "byteOffset": 552,
   "byteLength": 16
  }
 ],
 "accessors": [
  {
   "bufferView": 0,
   "componentType": 5126,
   "count": 28,
   "type": "VEC3",
   "min": [
    -0.8334920292638451,
    0.2,
    -1.0245862469873601
   ],
   "max": [
    1.2325,
    1.5875,
    0.763754729709504
   ]
  },
  {
   "bufferView": 1,
   "componentType": 5125,
   "count": 42,
   "type": "SCALAR"
  },
  {
   "bufferView": 2,
   "componentType": 5126,
   "count": 4,
   "type": "VEC3",
   "min": [
    0.0,
    0.0,
    -0.01
   ],
   "max": [
    0.04,
    1.18,
    0.05
   ]
  },
  {
   "bufferView": 3,
   "componentType": 5125,
   "count": 4,
   "type": "SCALAR"
  }
 ]
}